<?xml version="1.0" encoding="UTF-8"?>
<svg id="Layer_2" xmlns="http://www.w3.org/2000/svg" viewBox="0 0 312.09 166.56"><defs><style>.cls-1{fill:#e5318a;}.cls-1,.cls-2{stroke-width:0px;}.cls-2{fill:#fff;}</style></defs><g id="Laag_1"><path class="cls-2" d="M151.85,166.28l.02-.09c-.01-.19-.18-.29-.51-.29-.42-.23-.8-.53-1.15-.92-.34-.39-.58-.73-.71-1.03-.15-.3-.23-.46-.23-.48,0-.06.03-.11.09-.15.07-.04.14-.1.24-.16.11-.1.23-.16.37-.17.08,0,.15.03.22.12.07.08.17.23.3.43.26.39.67.69,1.25.9.58.21,1.22.29,1.93.25.87-.05,1.67-.27,2.4-.67.49-.24.85-.47,1.07-.69.22-.22.32-.45.31-.7-.01-.23-.14-.51-.37-.82-.07-.15-.16-.29-.27-.41-.11-.12-.27-.26-.48-.42-.12-.09-.36-.29-.71-.6-.32-.1-.64-.23-.98-.41l-.63-.25c-.54-.2-1.16-.57-1.88-1.1-.72-.53-1.21-1-1.47-1.41-.29-.23-.52-.57-.7-1.01-.18-.44-.29-.91-.32-1.44-.04-.7.07-1.34.32-1.94.2-.54.67-1.29,1.41-2.27.74-.98,1.31-1.62,1.72-1.94l.71-.77c.01-.08.04-.12.08-.14.04-.01.07-.02.09-.02.06-.04.25-.15.59-.31.34-.17.69-.44,1.06-.83,1.28-.72,2.31-1.24,3.09-1.57.79-.33,1.44-.51,1.96-.54.74,0,1.37.19,1.91.57.54.39.87.91,1.01,1.58.04.11.08.29.09.52.04.7-.17,1.46-.62,2.29s-.99,1.45-1.61,1.86c-.47.24-.8.37-1,.38-.14,0-.23-.03-.29-.13-.05-.09-.08-.25-.07-.46,0-.17.04-.38.15-.61.11-.23.38-.61.79-1.14.73-1.19,1.07-2.06,1.04-2.62-.02-.33-.17-.49-.46-.5-.22-.05-.75.04-1.6.24-.85.21-1.27.36-1.27.45,0,.02,0,.05,0,.1,0,.05-.04.07-.1.05-.08-.01-.77.43-2.07,1.33-1.3.9-1.97,1.4-2.01,1.5-.01.1-.08.2-.2.32-.12.11-.26.21-.43.3-.35.23-.67.56-.96.99-.28.42-.62,1.03-1,1.8-.21.34-.38.71-.5,1.11-.12.4-.17.75-.16,1.06.01.21.05.4.12.55.12.32.44.71.97,1.15.53.44,1.19.86,1.96,1.27,1.02.5,1.88,1,2.58,1.49.7.49,1.14.92,1.34,1.27.48.59.74,1.27.79,2.02.02.27,0,.52-.04.76-.14.34-.36.68-.67,1.01-.31.34-.58.5-.82.5-.19.07-.35.15-.48.25-.13.1-.24.17-.34.21-.21.15-.71.29-1.5.42s-1.54.2-2.21.2l-1.18-.28Z"/><path class="cls-2" d="M162.13,163.15c-.13-.12-.2-.2-.2-.24-.01-.21-.07-.37-.17-.48-.04-.04-.07-.12-.07-.26-.02-.31.1-.84.36-1.61.25-.76.6-1.59,1.03-2.49.11-.12.25-.33.41-.64s.28-.47.33-.51c0-.08.02-.15.08-.22.05-.07.12-.11.2-.11v-.17c-.02-.17.27-.61.87-1.32.6-.7,1.09-1.19,1.49-1.47.46-.36.95-.55,1.45-.58.35-.02.65.06.92.24.1.11.57.5,1.41,1.17l1.13.89-.44,1.48c-.14.53-.2,1.01-.18,1.44.04.73.3,1.43.76,2.08.11.21.31.4.62.57.3.18.6.27.89.3.43.05.66.25.68.6.02.39-.14.63-.48.73-.08.02-.19.04-.35.05-1.14.07-2.17-.68-3.1-2.23-.08-.11-.2-.32-.34-.62-.14-.3-.23-.51-.26-.62-.11.16-.24.35-.4.58-.16.22-.32.42-.46.58-1.98,2.23-3.58,3.38-4.8,3.46-.39.02-.74-.05-1.06-.23-.06-.11-.16-.23-.3-.35ZM163.68,161.88c.2-.05.45-.16.74-.33.29-.17.58-.39.88-.66,1.58-1.53,2.7-2.85,3.38-3.95l.57-1.08c-.22-.4-.44-.68-.66-.85-.22-.17-.42-.25-.6-.24-.41.02-1.01.57-1.83,1.64-.81,1.07-1.53,2.31-2.17,3.72-.15.34-.29.68-.41,1.03-.12.35-.19.57-.22.67,0,.1.11.12.31.07Z"/><path class="cls-2" d="M187.15,161.14c-.26-.36-.42-.97-.47-1.82l-.05-1.34c-.01-.23-.04-.39-.07-.49-.04-.09-.09-.14-.17-.14-.25.01-.77.38-1.55,1.08-.78.71-1.56,1.54-2.34,2.5-.09.1-.21.25-.37.44-.15.19-.3.34-.42.43-.13.09-.25.15-.37.15-.17.01-.34-.05-.51-.17l-.33-.24c-.14-.11-.22-.24-.23-.39l.04-.26.55-1.95c.37-1.01.58-1.65.64-1.91.06-.27.04-.39-.05-.36-.17.03-.41.14-.71.32-.3.18-.48.35-.55.51-.04,0-.16.11-.36.33-.2.22-.38.38-.52.48-.16.26-.56.74-1.2,1.44l-.66.71c-.28.25-.65.75-1.13,1.49-.25.36-.39.55-.43.55-.6.04-.99-.23-1.18-.8-.09-.13-.13-.31-.15-.54-.02-.31.06-.95.24-1.93.13-.67.21-1.08.22-1.23l.11-.59c.02-.25.09-.56.21-.91.11-.36.31-.92.6-1.69.16-.55.23-.96.22-1.23-.01-.25.06-.46.23-.61s.35-.24.57-.25c.27-.02.51.08.71.28.21.2.32.48.34.82.02.33-.04.67-.17,1.03l-.27.8c-.14.32-.3.83-.5,1.53-.2.7-.3,1.09-.3,1.17.02.06.09.04.2-.06.11-.09.24-.21.39-.36.16-.18.36-.37.58-.56.55-.58,1.21-1.14,1.98-1.69s1.37-.91,1.79-1.07c.25-.02.44,0,.57.07.13.06.28.17.44.32.17.16.29.27.37.34.18.16.29.41.31.74,0,.1,0,.22-.04.38-.06.28-.14.61-.25,1-.1.39-.18.68-.23.86.13-.12.36-.34.69-.65.33-.31.63-.6.91-.87.92-.81,1.66-1.23,2.22-1.27.41-.02.77.17,1.08.58.18.16.3.34.35.52.05.18.08.43.1.74.02.31.03.55.04.73.03.13.05.37.07.69.03.15.07.45.12.89.05.44.11.69.17.75.1.11.44.2,1,.26.35.04.53.18.55.43,0,.17-.1.35-.35.54-.24.17-.55.27-.91.29-.35.02-.67-.02-.97-.12-.28-.08-.55-.3-.81-.66Z"/><path class="cls-2" d="M191.87,161.96c-.58-.59-.9-1.34-.95-2.27-.05-.93.09-1.96.44-3.1.35-1.14.83-2.17,1.43-3.1.6-.93,1.24-1.57,1.89-1.92.38-.24.8-.37,1.29-.4.37-.02.79.06,1.27.25.34.12.6.27.78.45.19.18.36.47.52.87.08.34.12.58.13.72,0,.12-.02.37-.1.76-.19.73-.46,1.35-.81,1.87s-.81.96-1.39,1.35c-.3.21-.68.33-1.14.36-.41.02-.79-.03-1.16-.15-.37-.12-.66-.33-.86-.6l-.22-.22-.07.24c-.34,1.07-.5,1.97-.45,2.7.03.5.15.9.36,1.2.15.21.48.29,1.01.26.39-.02.66-.08.83-.17.29-.11.53-.25.75-.41.21-.16.42-.32.62-.49l.11-.07h-.03c.22-.13.41-.25.56-.35.15-.11.25-.18.31-.22.04,0,.08-.01.11-.04.04-.02.07-.06.11-.12.17-.09.38-.07.62.05.24.12.37.29.38.5-.03.16-.19.42-.48.78-.29.37-.51.56-.66.59-.02,0-.09.03-.2.1-.11.06-.19.12-.22.16h.03c-.16.24-.33.37-.5.38h-.23c-.07.17-.31.34-.74.52s-.83.28-1.22.3c-.83.05-1.54-.22-2.11-.81ZM196.45,155.22c.43-.65.62-1.28.58-1.9-.02-.33-.1-.56-.24-.68-.12-.05-.23-.07-.32-.07s-.26.04-.49.12c-.25.07-.62.36-1.11.87-.5.5-.86.95-1.09,1.33l-.34.63c.15-.07.3-.11.44-.13.14-.02.23,0,.25.03.02.27.1.49.24.65.15.17.33.24.54.23.58-.03,1.09-.39,1.54-1.08Z"/><path class="cls-2" d="M208.66,160.77c-.33-.44-.5-.88-.53-1.32-.02-.31.02-.87.12-1.68.1-.81.23-1.61.4-2.4.1-.35.14-.61.13-.76,0-.1-.05-.14-.12-.14-.08,0-.3.13-.68.39-.6.37-1,.69-1.22.97-.09.08-.24.23-.44.43-.2.21-.39.37-.55.5-.35.31-.81.76-1.39,1.35s-1.05,1.09-1.41,1.49c-.1.22-.26.34-.47.35-.06,0-.15-.01-.26-.04-.24-.04-.45-.16-.63-.35-.19-.19-.29-.41-.3-.64-.02-.29.12-.91.4-1.86.28-.95.64-1.99,1.08-3.12.07-.14.13-.34.17-.61.04-.26.06-.51.04-.74,0-.13.01-.29.06-.47.05-.18.11-.31.18-.39.05-.1.14-.15.25-.16.25-.02.47.12.66.4.33.27.5.63.53,1.07.02.37-.06.85-.24,1.44-.12.28-.21.5-.26.67-.06.17-.09.28-.11.34.06,0,.3-.15.73-.45l.7-.48.83-.72c.42-.37.67-.56.72-.57.08,0,.17-.04.29-.1.11-.06.21-.14.28-.22.05-.06.11-.1.15-.13.05-.02.08-.03.1-.03.02,0,.07-.01.14-.04.08-.02.14-.07.2-.13.07-.08.21-.13.4-.14.27-.02.55.06.83.21.28.16.43.34.44.56,0,.06.03.11.07.16.04.05.07.08.09.1.08,0,.15.09.22.29.07.2.11.44.13.73.03.43,0,.79-.08,1.08.01.21-.01.49-.07.82-.06.33-.09.55-.11.65l-.13.76c-.21.79-.29,1.43-.26,1.94.02.39.12.68.29.88.04.08.07.15.07.23,0,.12-.03.23-.11.33-.08.1-.21.16-.38.17-.29.02-.6-.19-.93-.63Z"/><path class="cls-2" d="M222.99,159.78c-.28-.17-.56-.38-.82-.63-.23-.28-.44-.8-.62-1.56-.18-.76-.29-1.52-.34-2.28-.02-.62.02-1.37.11-2.26.09-.89.17-1.57.24-2.04.27-.35.53-.53.78-.54.21-.01.39.09.54.32.28.12.43.33.44.64.01.23-.06.57-.23,1,0,.1,0,.24-.05.44-.04.2-.06.33-.08.41-.14.28-.21.53-.22.74,0,.14.03.27.07.4.04.13.06.28.07.43.01.23-.02.41-.11.53v-.03c-.02.08-.02.24,0,.49.02.37.07.73.15,1.08.08.35.17.61.28.75,0,.16.1.23.27.22.19-.01.44-.15.73-.42.45-.51.97-1.2,1.54-2.07.57-.87.81-1.37.73-1.5-.02-.02-.03-.06-.04-.11,0-.12.07-.23.23-.35.16-.12.27-.2.32-.27.05-.08.1-.21.15-.39.05-.18.09-.31.12-.39.09-.1.16-.24.21-.42l-.04-.08c0-.1.06-.21.18-.35.13-.13.2-.23.22-.29.04-.33.19-.51.46-.52.15,0,.3.05.43.16.13.12.21.27.25.47.02.35-.12.92-.42,1.73-.3.8-.65,1.53-1.04,2.17-.07.14-.18.37-.34.69-.16.32-.48.84-.98,1.57-.11.12-.25.29-.42.49-.17.2-.32.37-.45.49-.4.51-.71.87-.95,1.09-.24.22-.48.34-.74.38-.15.03-.37-.04-.65-.21Z"/><path class="cls-2" d="M232.63,160.17c-.15-.04-.36-.14-.64-.3-.87-.63-1.32-1.27-1.33-1.93.02-.06.02-.15.01-.26s-.02-.21-.05-.27c-.02-.07-.04-.11-.04-.13-.08-.05-.13-.09-.14-.12-.01-.03,0-.06.02-.1.03-.04.05-.08.07-.12.08-.02.11-.06.11-.12,0-.06-.03-.12-.07-.2-.07-.15-.05-.51.04-1.06.09-.56.23-1.09.42-1.58.13-.38.35-.86.65-1.46.3-.6.59-1.06.86-1.39.38-.49.73-.87,1.05-1.14.32-.27.7-.5,1.14-.68.4-.2.67-.3.83-.31.19-.01.44.09.75.31.47.11.83.28,1.09.5.26.23.47.59.63,1.08.14.4.22.85.25,1.35.06,1.08-.2,2.29-.8,3.63-.31.72-.61,1.27-.92,1.67-.31.4-.74.86-1.29,1.4-.39.35-.72.63-1.01.82-.29.19-.64.34-1.06.44-.23.03-.42.03-.57,0ZM236.15,154.89c.18-.51.32-1.13.42-1.87.01-.08.01-.23,0-.47-.02-.39-.08-.75-.18-1.1-.1-.34-.21-.52-.32-.53-.16-.05-.3-.07-.44-.06-.44.03-.9.32-1.38.87-.43.57-.79,1.25-1.09,2.03-.29.78-.57,1.74-.83,2.86-.08.39-.1.7-.09.94.02.35.1.62.25.81.15.2.35.29.6.27.31-.02.66-.2,1.04-.54.39-.34.78-.85,1.19-1.51.37-.62.65-1.19.83-1.69Z"/><path class="cls-2" d="M241.94,159.28c-.14-.07-.34-.2-.61-.4-.68-.64-1.04-1.24-1.07-1.8,0-.13,0-.23.01-.29.05-.14.07-.28.05-.41s-.03-.22-.03-.26c-.08-.07-.12-.12-.12-.15,0-.03.01-.06.05-.09.04-.03.06-.07.08-.11.12,0,.15-.12.1-.33-.05-.15,0-.5.17-1.04.16-.54.37-1.04.64-1.51.19-.36.48-.81.87-1.36.38-.55.73-.96,1.05-1.26.44-.43.84-.76,1.19-.97.36-.21.75-.38,1.19-.51.38-.12.64-.18.77-.19.13,0,.26.02.37.08.11.06.26.17.44.34.54.2.92.48,1.14.82.22.35.36.9.4,1.65.08,1.26-.36,2.65-1.29,4.18-.41.66-.79,1.18-1.16,1.54-.37.36-.86.75-1.47,1.18-.39.31-.75.54-1.08.69-.33.15-.71.24-1.13.29-.23.01-.42-.01-.56-.08ZM246.12,154.58c.25-.48.48-1.09.69-1.82.08-.33.1-.73.08-1.2-.04-.58-.13-.9-.29-.97-.2-.08-.4-.12-.59-.11-.43.02-.86.24-1.3.66-.53.52-1,1.14-1.4,1.87-.4.73-.8,1.63-1.21,2.71-.17.42-.24.82-.22,1.21.02.29.1.52.26.68s.36.24.61.23c.64-.04,1.42-.61,2.34-1.71.43-.55.77-1.06,1.03-1.54Z"/><path class="cls-2" d="M250.91,157.96c-.06-.09-.1-.24-.11-.43,0-.17,0-.32,0-.44.02-.66.12-1.43.3-2.32l.11-.59c.03-.49.31-1.52.83-3.1.53-1.58.97-2.67,1.32-3.25.15-.11.31-.16.48-.17.25-.02.47.06.65.22.12.07.19.21.2.42.01.19-.04.48-.17.87-.12.38-.34.96-.64,1.71-.07.16-.18.46-.34.89-.16.44-.24.69-.23.77,0,.04.01.06.03.06.04,0,.08-.02.11-.05.04-.03.07-.06.11-.08.19-.38.68-.91,1.46-1.6.78-.69,1.33-1.12,1.63-1.29.13-.08.3-.17.51-.26.21-.09.35-.16.42-.2.3-.17.66-.27,1.09-.3.27-.02.51.01.72.09.21.08.36.2.44.37.03.13.09.24.18.31s.16.12.2.13c.06,0,.1.02.12.07.02.05.03.08.04.1,0,.13-.07.22-.22.26-.15.04-.43.08-.84.12-.21.03-.43.09-.66.18-.23.09-.45.2-.68.33-1.05.68-1.83,1.21-2.34,1.59-.51.38-1.02.89-1.53,1.52-.2.24-.45.68-.77,1.3-.13.14-.25.51-.36,1.08-.11.58-.16.94-.15,1.07-.02.06-.05.17-.1.34-.05.17-.12.33-.23.49-.21.32-.4.49-.55.5-.17.01-.42-.13-.72-.42-.16-.11-.27-.21-.34-.3Z"/><path class="cls-2" d="M268.31,163.45c-.27.02-.51-.11-.72-.38-.21-.27-.33-.6-.35-.98-.01-.17,0-.37.05-.58.01-.08.06-.26.13-.55.07-.29.11-.53.12-.72.03-.21.12-.61.28-1.18.16-.57.29-.96.4-1.16.09-.18.15-.39.2-.64.04-.25.06-.46.05-.63.11-.43.22-.73.32-.89.11-.43.24-.77.38-1.01.02-.06.03-.2.05-.43.02-.22.07-.36.17-.4.04-.27.08-.46.11-.56.1-.61.31-1.38.62-2.31.16-.51.23-1.02.2-1.53-.04-.6-.2-.94-.5-1.02-.22-.06-.33-.21-.35-.45,0-.13.02-.26.09-.38s.17-.21.3-.28c.15-.07.3-.11.46-.11.21-.01.41,0,.6.05s.27.09.26.13c0,.06.02.1.04.13.02.03.06.04.12.04.05-.08.21.07.46.45.26.38.39.65.4.81-.04.06-.05.1-.04.12.01.02.05.03.1.02.13-.07.38-.21.75-.44.36-.22.59-.4.68-.52.04-.02.1-.06.2-.11.09-.05.17-.11.22-.17.21-.09.45-.14.72-.16.31-.02.61.01.91.09.3.08.55.2.75.36.44.5.67.98.7,1.44.02.41-.08.95-.31,1.62-.03.12-.14.35-.32.7-.18.35-.31.59-.38.71-.37.66-.82,1.24-1.35,1.74-.53.5-1.16.97-1.87,1.42-.21.15-.42.27-.63.36-.22.09-.4.14-.56.15-.08,0-.16-.01-.24-.04-.22-.14-.44-.46-.64-.95-.22.61-.34,1.03-.36,1.24,0,.06,0,.15-.03.28-.02.13-.07.22-.14.28,0,.02-.01.07-.03.15-.02.08-.08.19-.17.33-.24.83-.4,1.34-.46,1.54-.27.95-.43,1.57-.47,1.86-.01.48-.09,1-.23,1.54-.14.54-.26.84-.35.91-.11.07-.22.1-.31.11ZM272.95,153.76c.74-.64,1.2-1.07,1.38-1.32.34-.47.57-.9.68-1.29.16-.49.28-.86.34-1.1.05-.12.07-.26.06-.41-.01-.21-.08-.37-.2-.48-.12-.01-.37.07-.76.23-.39.17-.8.41-1.24.71-.44.31-.8.67-1.08,1.1-.32.48-.57,1-.74,1.56-.17.55-.24,1.02-.22,1.41.03.48.17.72.42.7.17-.11.62-.48,1.36-1.11Z"/><path class="cls-2" d="M278.64,157.48c-.13-.21-.21-.5-.26-.89-.02-.27.02-.69.1-1.24.08-.56.13-.9.14-1.04v-.23c.03-.1.05-.27.09-.53.03-.25.05-.31.06-.18l.16-.8c.1-.53.21-1.02.32-1.47.11-.45.18-.78.23-.97l.29-1.01c.54-1.93,1.01-3.19,1.41-3.78.01-.08.04-.15.07-.22.03-.07.06-.14.07-.22,0-.23.06-.44.17-.62.16-.3.29-.57.39-.81l.1-.33c.27-.68.51-1.19.72-1.56.07-.18.17-.39.3-.63.13-.24.24-.41.33-.51l-.03-.03c.09-.16.19-.26.32-.31.12-.05.29-.08.5-.09.25-.01.4.01.46.08.05.06.09.24.1.53l.02.26c.01.19,0,.34-.02.44-.02.1-.09.22-.2.36h.03c-.07.2-.12.34-.15.42-.12.36-.2.56-.25.6-.11.14-.46.92-1.04,2.35-.58,1.42-.98,2.43-1.17,3.02l-.12.44-.05.18c-.19.48-.29.73-.3.77l-.39,1.71-.11.62-.22.65-.14.56c-.03.08-.06.18-.07.29-.01.12-.05.21-.1.27l-.02.15c-.17,1.08-.26,2.11-.28,3.1l-.02.12c-.02.33-.07.58-.16.74-.09.16-.22.25-.39.26-.04,0-.14-.01-.29-.04-.26-.06-.45-.2-.58-.4Z"/><path class="cls-2" d="M290.34,156.82c-.23-.12-.46-.31-.69-.57-.17-.24-.28-.5-.32-.77-.04-.27-.09-.83-.14-1.68-.01-.19-.06-.29-.13-.28-.06,0-.19.1-.39.3-.2.2-.45.46-.74.79-.47.51-.92.92-1.33,1.21-.41.3-.75.44-1.02.44-.21.01-.45-.12-.71-.39s-.47-.6-.63-.98c-.07-.23-.12-.5-.13-.81-.05-.81.06-1.81.33-2.99s.61-2.2,1.01-3.07c.4-.87.78-1.31,1.13-1.33.29-.02.58.29.87.91.07.11.1.21.1.28,0,.14-.06.28-.21.42-.27.38-.57,1.06-.9,2.03-.33.97-.58,1.87-.76,2.69-.17.82-.2,1.23-.06,1.23.27-.02.58-.14.94-.38.35-.23.71-.54,1.05-.91.35-.39.65-.8.92-1.23.27-.43.59-1.02.97-1.76.74-1.34,1.14-2.12,1.2-2.34.26-.56.44-.92.56-1.1.12-.17.27-.29.46-.36l.41-.02c.12.01.26.09.42.24.14.05.22.11.26.17.03.07.05.16.06.27l-.4,1.1-.22.62c-.01.08-.11.31-.28.69-.39,1.01-.68,1.83-.87,2.44-.2.61-.33,1.24-.41,1.89-.01.1-.01.26,0,.49.03.58.12.98.25,1.21.2.34.38.58.57.72.1.07.16.15.16.22,0,.14-.1.28-.31.43-.22.15-.37.23-.47.23-.13.09-.31.07-.54-.05Z"/><path class="cls-2" d="M295.53,156.18c-.34-.24-.58-.46-.71-.64,0-.04,0-.11-.01-.2,0-.1.02-.16.08-.19.06-.03.16-.05.32-.06.33-.02.85-.01,1.57.02.42-.02.9-.11,1.44-.25s.83-.28.88-.42c.06,0,.09-.01.09-.03,0-.04-.09-.13-.25-.28-.04,0-.13-.03-.27-.09-.14-.06-.23-.09-.27-.09,0-.08-.1-.17-.28-.29-.18-.12-.38-.22-.6-.3-.59-.43-1-.75-1.25-.96-.25-.21-.34-.36-.29-.46v-.15c-.14,0-.3-.17-.49-.54-.19-.37-.29-.71-.31-1.04-.02-.35.1-.84.36-1.48.26-.64.58-1.16.94-1.57.51-.53,1.18-1.11,2.01-1.72.83-.61,1.49-1.01,1.98-1.19.32-.15.64-.24.97-.26.31-.02.57.03.8.16.26.14.52.35.78.62.26.28.43.53.53.75.02.43,0,.84-.06,1.24-.06.4-.18.61-.36.62-.02,0-.05.01-.09.03-.04.02-.05.07-.05.15,0,.08-.03.18-.1.31-.07.13-.17.26-.3.38-.41.33-.75.51-1.02.53-.21.01-.36-.09-.43-.29-.04-.04-.08-.09-.12-.17-.04-.07-.09-.11-.15-.11-.02,0-.06-.03-.11-.1-.05-.06-.08-.16-.09-.27,0-.06.02-.12.06-.19s.08-.12.09-.14c.12,0,.29-.25.54-.72.24-.47.36-.78.35-.94,0-.12-.03-.18-.06-.2-.03-.02-.12-.02-.28-.01-1.47.77-2.38,1.33-2.72,1.7-.05.12-.09.2-.12.24s-.08.06-.16.07c-.01-.17-.48.51-1.42,2.06-.04.04-.07.16-.11.36-.04.2-.05.36-.04.5-.03.16-.04.25-.04.26,0,.08.04.15.12.23.07.07.17.15.29.23.12.08.24.17.36.25,1.05.69,1.78,1.22,2.2,1.57.42.35.67.65.77.9.27.37.42.71.44,1.02.01.23-.06.44-.22.62-.16.18-.41.36-.75.54-.21.11-.56.21-1.06.31-.5.1-.99.16-1.47.19-.27.02-.56.01-.87,0-.36-.11-.71-.29-1.05-.53Z"/><path class="cls-2" d="M305.09,156c-.25.02-.55-.08-.89-.3-.29-.25-.44-.52-.46-.79-.03-.43.28-.88.91-1.36.37-.25.65-.39.82-.4.1,0,.33.05.71.16.54.28.82.62.85,1.03.01.23-.07.47-.26.71-.19.24-.47.47-.85.69-.36.16-.64.24-.83.25ZM306.32,150.75c-.23-.28-.36-.7-.39-1.26-.03-.5.02-1.09.16-1.76.24-.56.35-.97.33-1.24.08-.33.21-.76.39-1.29.18-.52.33-.93.45-1.21.08,0,.16-.08.24-.22.08-.14.11-.28.11-.41,0-.17.01-.35.07-.54.06-.19.12-.32.19-.4,0-.06.03-.16.1-.31.07-.15.1-.25.1-.31,0-.04.02-.1.06-.19.04-.09.06-.16.06-.22.31-.6.75-1.72,1.31-3.37.56-1.64.85-2.59.85-2.84.04-.33.2-.48.5-.44.09-.08.24-.13.46-.14l.43.44c.14.13.23.26.27.41.04.14.07.36.08.65,0,.29-.07.61-.21.96-.14.35-.3.71-.49,1.09-.19.38-.32.65-.39.81l-.34.72c-.28.56-.41.89-.41.98,0,.08-.04.22-.12.43-.08.21-.15.38-.2.52-.16.3-.33.67-.52,1.12-.19.45-.28.71-.27.79-.02.04-.04.11-.06.21-.02.1-.07.19-.14.27-.06,0-.09.05-.11.14-.01.09-.02.15-.02.19,0,.1-.03.29-.11.59-.08.3-.2.62-.35.98-.55,1.91-.82,3.27-.83,4.07-.01.47-.03.74-.05.82s-.11.16-.26.25c-.36.1-.66.01-.89-.27Z"/><path class="cls-2" d="M16.61,123.18H7.52l-1.47,3.72H.41l9.03-21.03h5.64l8.82,21.03h-5.85l-1.44-3.72ZM14.99,118.98l-2.88-7.5-2.94,7.5h5.82Z"/><path class="cls-2" d="M38.21,110.37c-3.24,0-5.7,2.55-5.7,5.91s2.46,5.97,5.7,5.97c1.74,0,3.75-.96,5.22-2.46l3.21,3.45c-2.25,2.37-5.61,3.9-8.73,3.9-6.33,0-11.04-4.62-11.04-10.8s4.83-10.62,11.25-10.62c3.12,0,6.39,1.38,8.49,3.6l-3.18,3.81c-1.38-1.68-3.39-2.76-5.22-2.76Z"/><path class="cls-2" d="M61.61,110.37c-3.24,0-5.7,2.55-5.7,5.91s2.46,5.97,5.7,5.97c1.74,0,3.75-.96,5.22-2.46l3.21,3.45c-2.25,2.37-5.61,3.9-8.73,3.9-6.33,0-11.04-4.62-11.04-10.8s4.83-10.62,11.25-10.62c3.12,0,6.39,1.38,8.49,3.6l-3.18,3.81c-1.38-1.68-3.39-2.76-5.22-2.76Z"/><path class="cls-2" d="M96.41,116.37c0,6.15-4.86,10.77-11.37,10.77s-11.37-4.62-11.37-10.77,4.86-10.65,11.37-10.65,11.37,4.56,11.37,10.65ZM79.31,116.4c0,3.42,2.67,6.06,5.79,6.06s5.67-2.64,5.67-6.06-2.52-6-5.67-6-5.79,2.58-5.79,6Z"/><path class="cls-2" d="M111.56,122.46c2.43,0,4.11-1.65,4.11-4.38v-12.21h5.49v12.21c0,5.55-3.72,9.06-9.63,9.06s-9.75-3.51-9.75-9.06v-12.21h5.49v12.21c0,2.7,1.8,4.38,4.29,4.38Z"/><path class="cls-2" d="M132.71,105.87l9.54,12.66v-12.66h5.1v21.03h-4.8l-9.54-12.6v12.6h-5.13v-21.03h4.83Z"/><path class="cls-2" d="M170.66,105.87v4.53h-6.3v16.5h-5.49v-16.5h-6.24v-4.53h18.03Z"/><path class="cls-2" d="M187.61,123.18h-9.09l-1.47,3.72h-5.64l9.03-21.03h5.64l8.82,21.03h-5.85l-1.44-3.72ZM185.99,118.98l-2.88-7.5-2.94,7.5h5.82Z"/><path class="cls-2" d="M204.62,105.87l9.54,12.66v-12.66h5.1v21.03h-4.8l-9.54-12.6v12.6h-5.13v-21.03h4.83Z"/><path class="cls-2" d="M242.57,105.87v4.53h-6.3v16.5h-5.49v-16.5h-6.24v-4.53h18.03Z"/><path class="cls-2" d="M255.5,110.1c-1.32,0-2.19.48-2.19,1.44,0,3.48,11.07,1.5,11.07,9.06,0,4.29-3.78,6.48-8.46,6.48-3.51,0-7.17-1.29-9.69-3.36l2.13-4.29c2.16,1.86,5.43,3.18,7.62,3.18,1.62,0,2.64-.6,2.64-1.71,0-3.57-11.07-1.41-11.07-8.85,0-3.93,3.33-6.42,8.4-6.42,3.09,0,6.21.96,8.4,2.37l-2.07,4.35c-2.22-1.26-5.04-2.25-6.78-2.25Z"/><path class="cls-2" d="M45.38,44.43l-25.13-5.12c-1.83-.32-3.3-1.03-4.41-2.14-1.11-1.11-1.67-3.06-1.67-5.84v-9.77c0-2.78.99-5.08,2.98-6.91,1.98-1.83,4.65-2.74,7.98-2.74h26.44v-1.19h-26.44c-3.65,0-6.59,1.01-8.81,3.04-2.22,2.02-3.34,4.63-3.34,7.8v9.77c0,3.26.66,5.5,1.97,6.73,1.31,1.23,3,2.04,5.06,2.44l25.13,5.12c2.22.48,3.99,1.41,5.3,2.8,1.31,1.39,1.97,3.95,1.97,7.68v6.91c0,3.18-1.09,5.78-3.28,7.8-2.18,2.02-5.1,3.04-8.75,3.04H10.72v1.19h29.66c4.05,0,7.27-1.13,9.65-3.39,2.38-2.26,3.57-5.14,3.57-8.63v-6.91c0-4.13-.77-6.99-2.32-8.57-1.55-1.59-3.51-2.62-5.9-3.1Z"/><path class="cls-2" d="M138.63,60.38c0,4.45-1.59,8.04-4.76,10.78-3.18,2.74-9.17,4.11-17.98,4.11s-14.79-1.37-17.92-4.11c-3.14-2.74-4.7-6.33-4.7-10.78V10.72h-1.19v49.66c0,4.76,1.65,8.64,4.94,11.61,3.29,2.98,9.59,4.47,18.88,4.47s15.6-1.49,18.94-4.47c3.33-2.98,5-6.85,5-11.61V10.72h-1.19v49.66Z"/><path class="cls-2" d="M249.76,13.73h-1.79c-1.51,0-2.72.26-3.63.78-.91.52-1.97,1.41-3.16,2.68l-19.53,20.01c-.56.55-1.05.97-1.49,1.25-.44.28-.93.42-1.49.42h-.71c-.56,0-1.05-.16-1.49-.48-.44-.32-1.01-.79-1.73-1.43l-24.06-21.91c-1.03-1.03-1.93-1.87-2.68-2.5-.76-.64-1.77-.95-3.04-.95h-1.79c-1.27,0-2.26.38-2.98,1.13-.71.75-1.07,1.92-1.07,3.51v59.11l.96-.02v.02h12.3v-1.2h-12.06V16.23c0-1.11.24-1.96.72-2.56.48-.6,1.19-.89,2.14-.89h1.79c1.11,0,1.97.32,2.56.95.6.64,1.41,1.39,2.44,2.26l24.06,21.91c.79.79,1.47,1.35,2.02,1.67.55.32,1.19.48,1.91.48h.71c.71,0,1.35-.16,1.91-.48.55-.32,1.23-.87,2.02-1.67l19.53-20.01c.95-1.03,1.85-1.79,2.68-2.26s1.88-.71,3.16-.71h1.79c.95,0,1.8.36,2.56,1.07.75.71,1.13,1.59,1.13,2.62v55.52h-13.09v1.2h13.22s1.06,0,1.06,0V18.62c0-1.43-.5-2.6-1.49-3.51-.99-.91-2.12-1.37-3.39-1.37Z"/><path class="cls-1" d="M41.92,85.75H4.29c-1.51,0-2.6-.34-3.28-1.01-.68-.67-1.01-1.77-1.01-3.28v-13.93c0-1.51.34-2.6,1.01-3.27s1.77-1.01,3.28-1.01h32.04c1.03,0,1.81-.34,2.32-1.01.52-.67.77-1.49.77-2.44,0-1.35-.26-2.34-.77-2.98-.52-.63-1.29-.99-2.32-1.07l-17.86-2.5c-5.56-.79-10.03-2.62-13.4-5.48-3.38-2.86-5.06-7.62-5.06-14.29v-12.51c0-6.75,2.18-11.93,6.55-15.54C10.92,1.81,16.95,0,24.65,0h33.35c1.51,0,2.6.34,3.28,1.01.67.68,1.01,1.77,1.01,3.28v14.17c0,1.51-.34,2.6-1.01,3.28-.68.68-1.77,1.01-3.28,1.01h-27.75c-1.03,0-1.83.34-2.38,1.01-.56.68-.83,1.53-.83,2.56s.28,1.91.83,2.62c.55.71,1.35,1.11,2.38,1.19l17.75,2.38c5.56.79,10.04,2.62,13.46,5.48,3.41,2.86,5.12,7.62,5.12,14.29v12.51c0,6.75-2.2,11.93-6.61,15.54-4.41,3.61-10.42,5.42-18.04,5.42ZM51.57,10.72h-26.44c-3.65,0-6.59,1.01-8.81,3.04-2.22,2.02-3.34,4.63-3.34,7.8v9.77c0,3.26.66,5.5,1.97,6.73,1.31,1.23,3,2.04,5.06,2.44l25.13,5.12c2.22.48,3.99,1.41,5.3,2.8,1.31,1.39,1.97,3.95,1.97,7.68v6.91c0,3.18-1.09,5.78-3.28,7.8-2.18,2.02-5.1,3.04-8.75,3.04H10.72v1.19h29.66c4.05,0,7.27-1.13,9.65-3.39,2.38-2.26,3.57-5.14,3.57-8.63v-6.91c0-4.13-.77-6.99-2.32-8.57-1.55-1.59-3.51-2.62-5.9-3.1l-25.13-5.12c-1.83-.32-3.3-1.03-4.41-2.14-1.11-1.11-1.67-3.06-1.67-5.84v-9.77c0-2.78.99-5.08,2.98-6.91,1.98-1.83,4.64-2.74,7.98-2.74h26.44v-1.19Z"/><path class="cls-1" d="M152.57,63.24c0,3.65-.54,6.97-1.61,9.94-1.07,2.98-2.98,5.52-5.72,7.62-2.74,2.1-6.49,3.75-11.26,4.94-4.76,1.19-10.84,1.79-18.22,1.79s-13.46-.6-18.22-1.79c-4.76-1.19-8.52-2.84-11.25-4.94-2.74-2.1-4.64-4.64-5.72-7.62-1.07-2.98-1.61-6.29-1.61-9.94V4.29c0-1.51.34-2.6,1.01-3.28.67-.67,1.77-1.01,3.28-1.01h18.7c1.51,0,2.6.34,3.28,1.01.67.68,1.01,1.77,1.01,3.28v54.31c0,1.59.6,2.92,1.79,3.99,1.19,1.07,3.85,1.61,7.98,1.61s6.91-.54,8.1-1.61c1.19-1.07,1.79-2.4,1.79-3.99V4.29c0-1.51.34-2.6,1.01-3.28.67-.67,1.77-1.01,3.28-1.01h18.1c1.51,0,2.6.34,3.28,1.01.67.68,1.01,1.77,1.01,3.28v58.95ZM92.06,10.72v49.66c0,4.76,1.65,8.64,4.94,11.61,3.29,2.98,9.59,4.47,18.88,4.47s15.6-1.49,18.94-4.47c3.33-2.98,5-6.85,5-11.61V10.72h-1.19v49.66c0,4.45-1.59,8.04-4.76,10.78-3.18,2.74-9.17,4.11-17.98,4.11s-14.79-1.37-17.92-4.11c-3.14-2.74-4.7-6.33-4.7-10.78V10.72h-1.19Z"/><path class="cls-1" d="M263.75,3.43c-.68-.68-1.77-1.01-3.27-1.01h-18.34c-1.59,0-2.96.24-4.11.71-1.15.48-2.28,1.23-3.39,2.26l-17.98,19.65-21.32-21.8c-1.11-1.03-2.24-1.79-3.39-2.26-1.15-.48-2.48-.71-3.99-.71h-15.36c-1.51,0-2.6.34-3.28,1.01s-1.01,1.77-1.01,3.28v77.21c0,1.51.34,2.6,1.01,3.28.68.67,1.77,1.01,3.28,1.01h24.28c1.06,0,1.82-.24,2.3-.71.47-.47.71-1.24.71-2.3v-16.86c0-1.06-.24-1.82-.71-2.3-.47-.47-1.24-.71-2.3-.71h-5.82v-30.4l18.22,18.46c.87.79,1.69,1.33,2.44,1.61.75.28,1.77.42,3.04.42h6.19c1.27,0,2.26-.12,2.98-.36s1.51-.79,2.38-1.67l15.48-16.44v28.37h-5.92c-1.06,0-1.82.24-2.3.71-.47.47-.71,1.24-.71,2.3v16.86c0,1.06.24,1.82.71,2.3.47.47,1.24.71,2.3.71h24.62c1.51,0,2.6-.34,3.27-1.01.67-.68,1.01-1.77,1.01-3.28V6.71c0-1.51-.34-2.6-1.01-3.28ZM254.64,75.34h-1.06s-13.22,0-13.22,0v-1.2h13.09V18.62c0-1.03-.38-1.91-1.13-2.62-.76-.71-1.61-1.07-2.56-1.07h-1.79c-1.27,0-2.32.24-3.16.71s-1.73,1.23-2.68,2.26l-19.53,20.01c-.79.79-1.47,1.35-2.02,1.67-.56.32-1.19.48-1.91.48h-.71c-.72,0-1.35-.16-1.91-.48-.56-.32-1.23-.87-2.02-1.67l-24.06-21.91c-1.03-.87-1.85-1.63-2.44-2.26-.6-.64-1.45-.95-2.56-.95h-1.79c-.95,0-1.67.3-2.14.89-.48.6-.71,1.45-.71,2.56v57.91s12.06,0,12.06,0v1.2h-12.3v-.02l-.96.02V16.23c0-1.59.36-2.76,1.07-3.51.71-.76,1.71-1.13,2.98-1.13h1.79c1.27,0,2.28.32,3.04.95.75.63,1.65,1.47,2.68,2.5l24.06,21.91c.71.63,1.29,1.11,1.73,1.43.44.32.93.48,1.49.48h.71c.55,0,1.05-.14,1.49-.42.44-.28.93-.7,1.49-1.25l19.53-20.01c1.19-1.27,2.24-2.16,3.16-2.68.91-.52,2.12-.78,3.63-.78h1.79c1.27,0,2.4.46,3.39,1.37.99.91,1.49,2.08,1.49,3.51v56.73Z"/></g><script xmlns=""/></svg>